<svg version="1.0" xmlns="http://www.w3.org/2000/svg"
 width="2520.000000pt" height="3543.000000pt" viewBox="0 0 2520.000000 3543.000000"
 preserveAspectRatio="xMidYMid meet">
<g transform="translate(0.000000,3543.000000) scale(0.100000,-0.100000)"
fill="#000000" stroke="none">
<path d="M12573 30973 c-13 -2 -23 -10 -23 -17 0 -7 -57 -44 -126 -82 -70 -38
-150 -82 -178 -97 -28 -16 -80 -45 -116 -64 -36 -20 -90 -50 -121 -67 -69 -38
-274 -152 -337 -187 -26 -14 -81 -45 -122 -68 -41 -23 -97 -53 -125 -67 -27
-14 -59 -30 -70 -37 -27 -17 -203 -115 -273 -153 -65 -35 -174 -94 -247 -135
-27 -15 -130 -72 -228 -126 -98 -54 -194 -107 -215 -119 -48 -27 -145 -80
-365 -201 -98 -54 -194 -108 -215 -119 -20 -12 -66 -37 -102 -56 -132 -71
-263 -145 -370 -208 -36 -21 -90 -52 -120 -68 -30 -17 -82 -45 -116 -64 -129
-71 -408 -225 -462 -254 -31 -17 -80 -44 -108 -60 -43 -24 -250 -138 -472
-260 -32 -17 -80 -44 -108 -60 -28 -16 -133 -74 -233 -129 -217 -119 -225
-123 -527 -290 -130 -71 -261 -144 -293 -162 -31 -17 -83 -45 -116 -62 -33
-17 -85 -46 -116 -64 -125 -72 -327 -183 -469 -258 -54 -29 -100 -58 -150 -97
-14 -11 -36 -23 -50 -27 -14 -4 -41 -17 -60 -30 -48 -31 -113 -68 -185 -105
-33 -17 -87 -46 -120 -64 -33 -18 -86 -47 -117 -64 -32 -18 -84 -46 -115 -64
-32 -17 -81 -43 -110 -58 -29 -14 -60 -33 -70 -41 -10 -9 -34 -22 -53 -29 -19
-7 -43 -20 -53 -29 -10 -9 -42 -28 -70 -42 -29 -15 -79 -41 -112 -58 -33 -18
-87 -47 -120 -66 -33 -19 -83 -46 -112 -59 -28 -14 -54 -29 -57 -35 -4 -5 -30
-21 -59 -36 -28 -14 -83 -43 -122 -65 -38 -21 -92 -51 -120 -65 -27 -14 -77
-41 -110 -60 -33 -19 -78 -44 -101 -55 -22 -11 -51 -28 -65 -38 -13 -10 -40
-24 -59 -32 -19 -7 -44 -21 -55 -30 -11 -10 -45 -29 -75 -44 -82 -40 -161 -83
-179 -99 -9 -8 -27 -18 -41 -22 -14 -4 -36 -15 -50 -25 -14 -10 -43 -27 -65
-38 -101 -51 -159 -83 -173 -95 -15 -12 -53 -32 -175 -95 -36 -18 -70 -39 -77
-47 -7 -8 -19 -15 -27 -15 -8 0 -40 -15 -71 -33 -106 -61 -117 -68 -179 -98
l-63 -30 0 -1804 c0 -1593 2 -1804 15 -1809 8 -3 15 -11 15 -19 0 -7 39 -35
88 -62 48 -27 103 -57 122 -68 19 -11 53 -30 75 -42 22 -12 86 -48 143 -79 56
-31 148 -81 205 -112 56 -31 122 -68 147 -81 25 -14 70 -39 100 -55 30 -17 60
-34 65 -38 10 -9 35 -22 220 -120 55 -29 107 -58 115 -65 8 -7 33 -21 55 -31
22 -10 63 -31 90 -47 53 -31 306 -172 390 -217 28 -15 141 -77 253 -138 112
-62 205 -112 208 -112 2 0 23 -12 47 -27 23 -15 85 -49 137 -76 52 -27 102
-55 110 -62 19 -15 277 -155 286 -155 4 0 15 -6 23 -14 9 -8 45 -29 81 -48
116 -62 165 -91 183 -110 24 -25 49 -19 58 12 4 14 7 819 8 1790 l1 1765 30
53 c23 39 36 52 54 52 23 0 56 28 56 47 0 6 20 14 45 17 30 5 51 15 63 31 12
14 37 28 63 34 28 6 50 19 62 35 10 14 27 26 36 26 34 0 80 22 86 40 4 12 20
21 47 25 28 5 50 17 67 36 16 19 35 29 52 29 17 0 38 11 55 30 16 16 42 32 59
36 16 4 45 19 63 35 18 16 44 29 58 29 15 0 36 12 52 29 16 17 42 31 65 35 23
4 43 16 53 31 10 16 31 27 62 34 31 6 52 18 65 35 13 18 28 26 49 26 20 0 39
9 57 28 14 16 42 32 62 36 21 4 47 18 63 36 16 19 36 30 52 30 15 0 36 12 52
29 16 18 42 32 65 36 24 5 44 16 54 31 10 16 29 26 56 31 26 4 51 16 67 33 14
16 41 30 62 34 21 4 45 17 56 31 10 13 35 26 55 30 20 4 46 19 61 36 16 18 36
29 52 29 16 0 37 12 54 30 15 17 32 30 37 30 31 0 83 24 88 39 4 13 22 23 55
31 31 7 54 20 64 34 9 15 29 25 55 30 25 4 47 15 59 30 10 14 34 27 55 31 20
4 46 19 61 36 16 17 36 29 51 29 14 0 39 13 57 30 19 18 47 33 70 37 28 4 43
13 50 29 8 16 24 26 56 33 31 6 52 18 65 35 10 14 28 26 38 26 26 0 76 26 81
42 2 6 26 19 54 27 36 12 50 22 52 37 3 18 12 22 65 27 59 5 167 48 207 82 8
7 62 38 120 68 58 30 160 86 228 124 68 37 149 82 180 99 31 18 82 45 112 62
91 49 377 207 469 259 31 17 79 43 106 57 28 14 77 41 110 61 33 19 145 81
249 137 103 57 212 117 241 133 29 17 155 86 279 155 125 69 243 135 264 146
20 12 66 37 102 56 36 20 133 73 215 118 83 46 166 92 185 102 19 11 67 37
105 59 115 64 189 99 211 99 42 0 130 -33 162 -61 18 -16 41 -29 51 -29 10 0
35 -14 56 -30 21 -17 50 -33 64 -37 14 -3 41 -19 59 -35 18 -15 41 -28 52 -28
10 0 32 -11 48 -25 17 -14 49 -32 73 -40 23 -9 48 -24 55 -34 8 -10 29 -22 49
-25 19 -4 50 -20 68 -35 17 -15 44 -31 59 -34 14 -4 39 -18 55 -31 16 -14 43
-28 59 -32 16 -4 44 -20 62 -36 18 -15 41 -28 51 -28 10 0 35 -13 56 -30 20
-16 52 -32 70 -36 18 -3 42 -16 53 -29 12 -13 39 -29 62 -35 22 -6 46 -20 53
-31 6 -11 30 -24 52 -30 22 -6 51 -21 65 -34 14 -13 39 -27 55 -31 17 -4 43
-17 58 -30 15 -13 42 -27 61 -32 18 -5 44 -21 58 -35 14 -14 43 -30 64 -36 22
-6 44 -19 51 -29 6 -11 32 -24 57 -31 26 -6 50 -19 56 -31 6 -11 29 -24 53
-31 23 -6 53 -21 67 -34 14 -13 39 -27 55 -31 17 -4 46 -20 65 -36 19 -15 43
-28 53 -28 11 0 34 -13 53 -30 18 -16 50 -32 69 -36 20 -3 40 -14 45 -24 5 -9
31 -25 57 -35 26 -10 58 -28 70 -40 12 -12 37 -25 56 -29 18 -3 44 -17 57 -31
12 -13 35 -27 51 -30 15 -4 45 -20 65 -36 20 -16 45 -29 55 -29 9 0 30 -11 46
-24 38 -31 67 -46 92 -46 11 0 25 -9 30 -19 6 -10 31 -26 56 -35 26 -8 60 -27
76 -41 17 -14 43 -28 57 -31 15 -4 39 -17 53 -31 48 -44 145 -39 122 6 -4 9
-11 777 -15 1706 -3 930 -8 1710 -10 1734 -3 38 -9 49 -48 81 -25 21 -90 62
-145 91 -55 29 -127 67 -160 85 -33 17 -91 50 -130 73 -38 22 -92 52 -120 66
-27 15 -63 34 -80 43 -16 10 -86 48 -155 85 -69 37 -132 72 -140 77 -8 6 -40
24 -70 40 -30 17 -86 48 -125 69 -38 22 -90 50 -115 64 -25 13 -70 38 -100 54
-30 17 -151 83 -267 147 -117 64 -227 125 -245 135 -18 11 -138 77 -265 148
-128 70 -259 142 -290 160 -32 18 -85 46 -118 63 -32 17 -64 35 -71 40 -6 6
-35 22 -65 38 -129 67 -255 136 -268 146 -13 11 -36 23 -177 96 -37 19 -69 42
-71 51 -7 25 -43 33 -100 22z m-6423 -3713 c0 -5 19 -19 43 -32 l42 -22 -40
-8 c-48 -10 -65 -5 -65 21 0 11 -7 27 -16 35 -21 21 -9 39 17 26 10 -6 19 -15
19 -20z m185 -111 c4 -6 5 -13 1 -16 -8 -8 -56 6 -56 17 0 13 47 13 55 -1z
m115 -69 c0 -5 -9 -6 -20 -3 -11 3 -17 9 -15 14 7 10 35 1 35 -11z m130 -64
c0 -9 -8 -12 -25 -8 -37 7 -41 22 -6 22 20 0 31 -5 31 -14z m120 -60 c0 -3 -4
-8 -10 -11 -5 -3 -10 -1 -10 4 0 6 5 11 10 11 6 0 10 -2 10 -4z m103 -56 c9 0
17 -6 17 -14 0 -15 -17 -15 -61 -1 -27 9 -24 29 4 21 12 -3 30 -6 40 -6z m100
-62 c21 -11 21 -11 2 -18 -27 -10 -64 8 -44 21 18 11 16 11 42 -3z m125 -76
c3 -9 -3 -13 -19 -10 -12 1 -24 9 -27 16 -3 9 3 13 19 10 12 -1 24 -9 27 -16z
m117 -62 c3 -5 -3 -10 -14 -10 -11 0 -23 5 -26 10 -3 6 3 10 14 10 11 0 23 -4
26 -10z m245 -130 c0 -12 -8 -12 -35 0 -18 8 -17 9 8 9 15 1 27 -3 27 -9z
m108 -56 c32 -9 27 -26 -5 -20 -16 2 -31 5 -35 5 -5 1 -8 6 -8 11 0 11 15 12
48 4z m116 -60 c20 -8 21 -34 2 -34 -24 0 -66 19 -66 30 0 11 39 14 64 4z
m111 -74 c3 -5 -3 -10 -14 -10 -12 0 -21 5 -21 10 0 6 6 10 14 10 8 0 18 -4
21 -10z m330 -190 c3 -5 1 -10 -4 -10 -6 0 -11 5 -11 10 0 6 2 10 4 10 3 0 8
-4 11 -10z m130 -61 c4 -6 5 -13 2 -16 -8 -7 -47 7 -47 18 0 13 37 11 45 -2z
m126 -59 c5 0 9 -4 9 -10 0 -5 -11 -10 -25 -10 -16 0 -25 6 -25 16 0 11 5 14
16 10 9 -3 20 -6 25 -6z m120 -70 c5 0 9 -4 9 -9 0 -14 -43 -7 -48 8 -3 10 0
12 12 8 10 -4 22 -7 27 -7z m114 -70 c4 -6 -2 -9 -14 -7 -29 4 -39 17 -13 17
11 0 24 -5 27 -10z m109 -59 c7 -11 -22 -23 -35 -15 -5 3 -9 9 -9 15 0 12 37
12 44 0z m114 -76 c-3 -3 -13 -2 -22 1 -14 5 -15 9 -4 15 13 8 36 -6 26 -16z
m113 -46 c20 -10 17 -29 -4 -29 -21 0 -40 17 -33 29 9 14 12 14 37 0z m123
-65 c9 -3 16 -10 16 -15 0 -14 -44 -10 -66 6 -18 14 -18 14 8 15 14 0 33 -3
42 -6z m131 -74 c3 -6 -5 -10 -19 -10 -14 0 -28 5 -31 10 -3 6 5 10 19 10 14
0 28 -4 31 -10z"/>
<path d="M19135 20100 c-3 -4 -26 -18 -52 -31 -44 -21 -105 -55 -243 -132 -30
-17 -75 -42 -100 -55 -25 -13 -72 -39 -105 -58 -33 -19 -89 -49 -125 -67 -36
-19 -94 -52 -130 -73 -36 -22 -94 -55 -130 -72 -36 -18 -86 -45 -111 -60 -52
-31 -340 -191 -427 -238 -83 -45 -167 -91 -254 -140 -43 -24 -81 -44 -85 -44
-5 0 -31 -15 -59 -32 -27 -18 -68 -43 -89 -54 -22 -12 -65 -35 -95 -52 -31
-17 -105 -56 -165 -87 -61 -31 -117 -62 -125 -70 -8 -7 -62 -37 -120 -68 -117
-62 -233 -126 -420 -231 -69 -39 -178 -98 -243 -131 -64 -33 -117 -63 -117
-68 0 -4 8 -10 18 -13 30 -10 56 -24 91 -49 19 -14 44 -25 56 -25 12 0 32 -11
45 -25 13 -14 41 -30 62 -35 21 -6 49 -21 62 -35 13 -13 41 -28 62 -34 22 -6
44 -19 51 -29 6 -11 32 -24 57 -31 27 -6 50 -19 56 -31 6 -12 29 -25 56 -31
25 -7 48 -18 51 -26 6 -16 55 -43 79 -43 9 0 32 -13 51 -30 18 -16 42 -30 53
-30 10 0 31 -11 47 -24 37 -31 67 -46 91 -46 11 0 27 -11 35 -24 10 -14 33
-28 60 -34 24 -6 51 -20 61 -31 10 -11 35 -26 55 -32 20 -7 51 -25 69 -40 18
-16 42 -29 54 -29 11 0 36 -13 55 -30 18 -16 42 -30 53 -30 10 0 31 -11 47
-24 37 -30 67 -46 91 -46 10 0 28 -11 40 -24 11 -14 39 -30 62 -36 22 -6 46
-20 53 -31 6 -11 30 -24 52 -30 22 -6 55 -24 73 -40 18 -16 41 -29 51 -29 10
0 35 -13 56 -30 21 -16 46 -30 56 -30 9 0 30 -11 46 -24 36 -30 67 -46 88 -46
9 0 30 -13 45 -30 17 -19 38 -30 54 -30 15 0 39 -12 56 -29 17 -16 46 -32 64
-35 18 -4 43 -17 56 -31 12 -13 35 -27 51 -30 15 -4 45 -20 65 -36 20 -16 45
-29 54 -29 9 0 34 -13 55 -30 21 -16 54 -34 74 -40 20 -5 41 -18 48 -28 6 -11
31 -24 55 -30 24 -6 54 -22 67 -36 13 -14 38 -28 55 -32 17 -3 42 -16 56 -29
14 -13 42 -28 63 -33 21 -6 49 -22 62 -36 13 -14 32 -26 42 -26 10 0 43 -25
73 -55 30 -30 61 -54 68 -55 7 0 15 -7 18 -15 3 -8 16 -17 27 -21 12 -3 63
-30 112 -59 50 -29 140 -78 200 -110 61 -32 133 -73 160 -90 28 -17 77 -44
110 -60 33 -16 96 -50 140 -76 133 -78 167 -97 240 -134 39 -19 88 -46 110
-59 104 -61 393 -220 480 -263 28 -14 61 -33 75 -43 14 -10 68 -40 120 -67 52
-27 131 -71 176 -96 45 -26 85 -47 89 -47 5 0 16 -6 24 -14 9 -7 52 -33 96
-57 44 -23 98 -53 120 -65 22 -13 69 -38 105 -57 36 -18 119 -64 185 -101 66
-38 154 -87 195 -109 90 -47 230 -127 308 -173 31 -19 66 -34 79 -34 l23 0 0
1793 0 1793 -37 13 c-21 7 -58 26 -84 41 -25 15 -56 31 -70 35 -13 4 -31 13
-39 20 -8 7 -39 26 -69 41 -29 16 -83 46 -120 66 -36 20 -82 44 -101 53 -19 9
-48 27 -65 40 -16 12 -41 26 -55 30 -14 4 -44 21 -67 36 -23 16 -48 29 -57 29
-8 0 -28 11 -44 25 -16 13 -49 34 -73 45 -24 12 -71 36 -104 55 -33 18 -87 48
-120 65 -33 18 -83 44 -110 58 -28 15 -65 37 -82 50 -17 12 -37 22 -45 22 -7
0 -35 16 -62 35 -27 19 -57 35 -67 35 -9 0 -23 8 -30 17 -8 9 -41 29 -74 45
-33 16 -87 45 -120 63 -33 19 -80 44 -105 57 -26 13 -59 33 -74 46 -16 12 -34
22 -40 22 -7 0 -36 16 -66 35 -30 19 -62 35 -71 35 -9 0 -23 7 -30 17 -8 9
-41 29 -74 45 -107 53 -163 83 -182 99 -10 9 -34 22 -53 29 -19 8 -48 24 -63
37 -16 13 -34 23 -41 23 -7 0 -33 13 -58 29 -25 16 -56 32 -69 36 -13 4 -31
14 -40 22 -18 16 -97 59 -179 99 -30 15 -64 34 -75 44 -11 9 -36 23 -55 30
-19 7 -42 19 -51 27 -9 7 -42 27 -75 43 -32 16 -66 34 -74 39 -38 24 -130 59
-135 51z"/>
<path d="M12460 16461 c-20 -11 -60 -35 -90 -55 -30 -20 -58 -36 -63 -36 -5 0
-21 -8 -35 -18 -15 -10 -43 -25 -62 -32 -19 -8 -57 -29 -85 -47 -27 -18 -54
-33 -59 -33 -5 0 -17 -6 -25 -14 -9 -8 -68 -41 -131 -73 -63 -33 -137 -74
-165 -91 -27 -17 -80 -46 -117 -63 -38 -17 -68 -36 -68 -40 0 -5 -7 -9 -16 -9
-9 0 -28 -8 -42 -19 -15 -10 -60 -36 -100 -57 -116 -61 -136 -72 -148 -81 -15
-11 -38 -25 -150 -83 -54 -29 -106 -58 -114 -65 -8 -6 -35 -22 -60 -34 -25
-13 -76 -40 -115 -61 -38 -22 -88 -48 -110 -58 -22 -11 -55 -32 -74 -46 -19
-14 -41 -26 -49 -26 -7 0 -32 -13 -55 -28 -23 -16 -58 -37 -77 -47 -70 -36
-147 -77 -215 -115 -38 -22 -92 -51 -120 -65 -27 -14 -99 -54 -160 -90 -60
-35 -137 -78 -170 -94 -33 -17 -67 -35 -75 -41 -8 -5 -33 -18 -55 -28 -69 -33
-279 -152 -295 -167 -12 -13 -12 -15 2 -15 9 0 26 -13 37 -28 11 -16 37 -33
58 -40 21 -6 54 -23 73 -37 18 -14 39 -25 46 -25 6 0 29 -12 50 -26 21 -15 52
-31 69 -37 16 -5 41 -20 55 -33 14 -13 41 -29 60 -35 19 -7 48 -23 63 -36 16
-12 41 -26 55 -30 15 -3 39 -16 54 -29 15 -12 44 -28 65 -34 21 -7 47 -20 58
-30 11 -10 38 -25 60 -35 22 -9 49 -24 60 -34 11 -10 32 -21 46 -24 14 -4 43
-20 64 -37 21 -16 46 -30 55 -30 10 0 29 -9 43 -20 14 -12 48 -30 74 -42 26
-11 51 -27 56 -34 4 -7 28 -20 55 -30 26 -9 56 -25 67 -35 11 -9 38 -24 60
-34 22 -9 49 -24 60 -34 11 -10 35 -23 52 -29 18 -6 48 -22 66 -36 19 -15 40
-26 48 -26 8 0 39 -16 69 -35 30 -19 59 -35 65 -35 7 0 20 -9 30 -20 9 -10 38
-27 64 -36 25 -10 55 -25 66 -35 11 -10 38 -25 60 -34 22 -10 49 -25 60 -35
11 -10 36 -23 56 -29 20 -6 51 -23 69 -36 19 -14 39 -25 44 -25 6 0 33 -16 60
-35 27 -19 56 -35 64 -35 8 0 27 -11 44 -25 16 -13 47 -30 69 -36 22 -7 44
-20 49 -29 5 -9 28 -22 52 -30 24 -7 54 -23 68 -35 14 -12 40 -27 58 -33 19
-6 47 -23 64 -37 16 -14 37 -25 46 -25 10 0 39 -16 66 -35 27 -19 57 -35 67
-35 9 0 22 -6 28 -14 6 -8 35 -24 64 -36 29 -13 65 -33 80 -46 16 -13 41 -27
55 -30 15 -4 41 -19 57 -35 45 -42 82 -46 129 -14 22 15 59 37 82 49 23 11 99
53 169 91 70 39 152 84 183 101 31 17 80 43 107 59 28 15 79 44 115 63 99 54
171 93 240 132 68 38 139 77 240 131 36 20 88 48 115 64 28 15 68 38 90 50 22
11 52 29 66 38 26 18 87 51 194 106 33 17 87 46 120 65 33 19 78 44 100 55 22
12 67 37 100 56 33 20 88 49 122 66 35 17 65 35 68 39 3 5 29 20 58 35 28 14
79 41 112 59 33 18 85 47 115 63 30 17 84 47 120 67 36 20 89 48 117 62 29 14
55 29 58 34 3 5 27 19 53 30 25 11 53 27 62 34 8 7 65 39 125 71 61 32 126 66
145 76 19 11 40 19 47 19 7 0 17 9 23 21 15 28 1 44 -74 80 -95 45 -241 124
-274 148 -16 11 -49 30 -73 42 -47 22 -64 31 -329 179 -170 95 -261 145 -355
195 -137 73 -158 85 -169 94 -6 5 -36 22 -66 39 -101 54 -269 144 -360 194
-19 11 -64 37 -100 58 -36 21 -92 53 -125 70 -67 34 -154 82 -337 183 -31 18
-114 64 -183 102 -70 39 -153 84 -184 102 -31 17 -74 41 -96 53 -22 11 -71 38
-110 60 -38 21 -95 52 -125 68 -47 26 -134 74 -213 119 -34 20 -146 15 -187
-6z"/>
<path d="M9274 11003 c-14 -15 -34 -28 -45 -30 -20 -3 -38 -13 -154 -78 -33
-19 -85 -47 -115 -63 -68 -36 -159 -85 -225 -123 -27 -16 -77 -42 -110 -59
-33 -17 -89 -49 -125 -70 -36 -22 -81 -47 -100 -56 -19 -9 -48 -26 -65 -39
-16 -12 -41 -26 -55 -30 -14 -4 -44 -20 -67 -35 -22 -16 -52 -31 -65 -35 -12
-4 -30 -13 -38 -20 -8 -7 -64 -38 -125 -70 -60 -31 -116 -62 -124 -69 -14 -11
-90 -53 -150 -81 -18 -9 -52 -28 -75 -43 -22 -14 -79 -46 -126 -70 -47 -24
-114 -61 -150 -83 -36 -21 -92 -52 -125 -69 -33 -17 -91 -48 -130 -69 -38 -21
-94 -51 -123 -66 -28 -14 -58 -32 -65 -39 -12 -12 -44 -30 -152 -86 -33 -17
-85 -44 -115 -62 -30 -17 -82 -45 -115 -63 -68 -37 -190 -105 -250 -141 -22
-13 -60 -33 -85 -45 -56 -27 -53 -24 -46 -47 8 -24 47 -42 91 -42 19 0 35 -4
35 -10 0 -23 41 -50 75 -50 28 0 38 -5 46 -24 13 -27 48 -46 85 -46 17 0 27
-8 33 -24 11 -26 30 -36 72 -36 21 0 32 -7 43 -29 13 -24 23 -29 66 -35 33 -4
50 -11 50 -21 0 -21 41 -45 77 -45 26 0 36 -5 43 -25 5 -14 20 -27 35 -30 14
-3 36 -7 49 -10 13 -3 26 -14 29 -25 6 -22 44 -40 88 -40 22 0 29 -5 29 -20 0
-24 29 -40 74 -40 28 0 37 -5 48 -27 10 -22 23 -30 61 -37 26 -4 47 -14 47
-21 0 -22 36 -45 71 -45 27 0 37 -6 51 -30 13 -23 24 -30 47 -30 39 0 61 -9
61 -26 0 -18 52 -44 90 -44 23 0 30 -4 30 -20 0 -23 34 -40 80 -40 22 0 32 -7
42 -27 10 -22 23 -30 61 -37 26 -5 47 -15 47 -22 0 -24 31 -44 71 -44 26 0 39
-4 39 -13 0 -23 35 -47 68 -47 28 0 62 -21 62 -39 0 -12 48 -31 79 -31 22 0
30 -6 35 -25 5 -18 15 -26 44 -30 62 -11 72 -16 72 -35 0 -19 49 -40 93 -40 9
0 17 -6 17 -14 0 -26 30 -46 70 -46 33 0 41 -4 52 -27 11 -23 22 -29 58 -34
24 -3 46 -11 48 -18 9 -26 47 -51 79 -51 26 0 36 -5 42 -24 10 -25 30 -36 66
-36 36 0 55 -10 55 -31 0 -18 50 -39 93 -39 10 0 22 -11 26 -24 11 -26 30 -36
71 -36 22 0 32 -7 42 -27 10 -21 23 -29 51 -34 40 -6 40 -6 53 -30 13 -24 110
-98 168 -129 140 -73 268 -142 331 -178 39 -22 113 -64 165 -93 85 -47 126
-69 289 -156 25 -13 52 -29 60 -37 9 -8 41 -26 71 -41 77 -37 155 -78 171 -91
8 -6 57 -34 109 -62 52 -27 127 -68 165 -91 39 -22 97 -54 130 -71 33 -17 87
-46 120 -64 33 -19 83 -47 110 -61 28 -15 82 -45 120 -67 39 -22 115 -64 170
-93 55 -28 118 -63 140 -76 43 -26 62 -36 152 -87 32 -17 65 -36 73 -42 8 -5
64 -35 124 -67 60 -32 134 -72 165 -90 31 -17 79 -43 106 -58 28 -15 75 -41
106 -58 31 -18 88 -49 127 -70 40 -22 72 -47 75 -58 4 -16 14 -19 65 -19 49 0
64 4 85 24 14 13 61 43 104 67 43 24 90 50 105 59 47 26 278 154 337 186 138
75 199 108 233 128 20 11 123 68 228 126 193 105 247 135 330 182 25 15 133
74 240 133 107 59 220 121 250 138 30 17 78 43 105 58 28 14 79 43 115 63 36
20 92 50 124 68 33 18 85 47 115 65 31 17 83 45 116 62 57 30 83 45 220 121
33 19 89 50 124 69 35 20 89 50 120 68 31 17 83 45 116 62 33 17 83 44 112 59
59 31 143 106 143 128 0 8 6 17 13 19 9 4 11 346 9 1675 -2 1590 -1 1670 15
1670 17 0 18 -80 15 -1671 -2 -1552 -1 -1670 14 -1667 27 5 42 37 24 48 -11 7
-1 10 33 10 58 0 87 14 87 40 0 14 7 20 23 20 12 0 39 5 60 11 30 8 37 15 37
34 0 22 4 25 41 25 50 0 79 15 79 40 0 15 7 20 29 20 47 0 79 17 83 42 2 19
11 24 48 28 55 7 70 15 70 41 0 16 7 19 43 19 45 0 86 28 73 48 -3 6 13 13 36
17 70 11 78 15 78 39 0 21 6 24 51 28 50 5 73 21 64 46 -3 8 7 12 30 12 36 0
84 18 86 32 1 4 2 14 3 21 0 7 23 15 55 19 53 6 75 21 66 46 -3 8 8 12 39 12
43 0 85 28 72 48 -6 11 26 22 65 22 29 0 49 17 49 41 0 13 12 18 51 21 50 5
73 21 65 44 -3 7 15 14 46 17 56 7 80 21 76 46 -2 12 8 17 50 21 53 6 75 21
65 47 -4 9 5 13 32 13 46 0 73 15 85 46 8 20 16 24 48 24 41 0 62 14 62 42 0
14 8 18 41 18 49 0 79 15 79 39 0 14 10 20 49 25 50 7 74 23 69 47 -2 10 11
15 42 17 50 4 70 16 70 43 0 15 7 19 35 19 47 0 83 18 87 44 2 17 11 22 43 24
46 4 65 17 65 43 0 16 8 19 47 19 50 0 86 22 76 46 -3 10 2 14 19 14 49 0 88
20 88 46 0 21 4 24 41 24 50 0 79 15 79 40 0 16 7 20 32 20 47 0 95 21 107 46
11 26 6 34 -24 34 -11 0 -26 5 -33 12 -14 14 -100 63 -185 107 -32 16 -64 36
-70 44 -7 7 -34 22 -62 32 -27 10 -59 26 -70 35 -11 10 -36 23 -56 29 -20 7
-44 20 -54 30 -9 11 -28 22 -42 26 -14 3 -40 17 -57 30 -17 13 -50 28 -74 35
-24 6 -45 17 -48 25 -3 8 -30 26 -60 39 -30 14 -54 29 -54 34 0 5 -26 20 -57
33 -32 12 -62 29 -66 36 -4 7 -14 13 -21 13 -7 0 -42 18 -79 40 -36 22 -72 40
-80 40 -8 0 -32 14 -53 31 -21 17 -51 33 -66 36 -15 3 -29 11 -32 18 -2 7 -26
21 -53 31 -26 9 -59 27 -73 39 -14 12 -46 30 -72 40 -27 10 -48 22 -48 27 0 5
-27 20 -60 35 -33 14 -60 29 -60 33 0 4 -19 15 -42 25 -24 9 -60 27 -80 40
-20 13 -48 27 -62 31 -14 3 -26 10 -26 15 0 10 -73 49 -93 49 -7 0 -24 11 -36
24 -12 13 -42 29 -67 36 -24 7 -49 19 -56 28 -7 8 -32 23 -55 33 -24 10 -53
28 -65 39 -12 11 -39 26 -60 32 -20 6 -47 22 -59 34 -13 13 -30 24 -39 24 -9
0 -37 13 -62 29 -25 16 -56 32 -69 36 -13 4 -37 18 -52 31 -15 13 -44 26 -63
30 -19 3 -41 15 -47 25 -7 11 -34 26 -62 36 -27 9 -56 25 -63 35 -17 24 -160
96 -198 100 -18 2 -36 14 -49 33 -19 27 -26 30 -73 30 -37 -1 -58 -6 -74 -21
-13 -12 -38 -27 -57 -34 -18 -8 -45 -23 -60 -35 -14 -12 -42 -27 -61 -35 -19
-7 -46 -21 -60 -30 -14 -10 -45 -27 -70 -39 -61 -30 -126 -66 -158 -88 -15 -9
-47 -28 -72 -41 -25 -12 -72 -38 -105 -57 -33 -18 -87 -47 -120 -64 -111 -58
-167 -90 -184 -104 -9 -8 -27 -18 -41 -22 -14 -4 -40 -18 -58 -32 -17 -13 -47
-29 -65 -35 -17 -6 -40 -18 -50 -27 -18 -16 -78 -49 -166 -90 -24 -12 -57 -33
-73 -46 -16 -14 -36 -25 -45 -25 -8 0 -34 -13 -58 -29 -24 -16 -54 -32 -67
-36 -12 -4 -41 -20 -63 -35 -22 -15 -51 -31 -65 -35 -14 -4 -31 -13 -39 -19
-19 -16 -118 -71 -171 -96 -25 -12 -53 -28 -62 -37 -9 -8 -43 -28 -75 -44 -99
-50 -185 -97 -196 -108 -6 -6 -19 -11 -28 -11 -10 0 -31 -11 -47 -25 -16 -13
-49 -34 -73 -45 -24 -12 -75 -38 -114 -60 -38 -21 -93 -49 -121 -63 -28 -14
-54 -29 -58 -35 -3 -6 -30 -22 -59 -36 -28 -14 -79 -41 -112 -60 -33 -19 -76
-42 -95 -52 -40 -19 -53 -26 -95 -54 -16 -11 -61 -32 -98 -47 l-68 -27 -67 34
c-37 19 -80 44 -97 56 -16 12 -41 25 -55 29 -14 4 -32 13 -40 20 -8 7 -42 27
-75 46 -33 18 -87 47 -120 65 -33 18 -80 43 -105 54 -25 12 -54 29 -65 39 -11
10 -36 24 -55 31 -19 7 -48 23 -65 35 -16 12 -41 26 -55 30 -14 4 -38 18 -55
30 -16 13 -46 30 -65 39 -19 9 -66 34 -105 56 -38 22 -96 51 -127 66 -32 15
-58 30 -58 34 0 4 -19 15 -42 26 -24 10 -54 26 -67 36 -14 10 -43 28 -65 38
-23 11 -72 38 -111 60 -38 21 -92 51 -120 65 -27 15 -77 42 -110 60 -33 19
-80 44 -105 57 -25 13 -58 32 -75 44 -16 11 -44 26 -62 33 -17 7 -46 24 -64
37 -18 13 -39 24 -46 24 -7 0 -36 16 -64 35 -28 19 -59 35 -69 35 -10 0 -24 7
-31 17 -8 9 -37 27 -66 39 -28 13 -54 27 -57 33 -4 5 -30 21 -59 35 -28 15
-63 33 -77 41 -23 14 -40 22 -146 74 -22 11 -52 30 -66 41 -14 11 -46 29 -69
41 -24 11 -71 36 -104 54 -33 19 -88 48 -122 64 -34 17 -64 35 -67 40 -4 5
-30 21 -59 36 -28 14 -63 32 -77 40 -40 24 -87 19 -116 -12z"/>
</g>
</svg>
